<?xml version="1.0" encoding="UTF-8" standalone="no"?>
<!-- Created with Inkscape (http://www.inkscape.org/) -->

<svg
   width="24"
   height="24"
   viewBox="0 0 6.3499999 6.3499998"
   version="1.1"
   id="svg5"
   sodipodi:docname="sagesnips_icon_24px.svg"
   inkscape:version="1.1.2 (0a00cf5339, 2022-02-04)"
   xmlns:inkscape="http://www.inkscape.org/namespaces/inkscape"
   xmlns:sodipodi="http://sodipodi.sourceforge.net/DTD/sodipodi-0.dtd"
   xmlns="http://www.w3.org/2000/svg"
   xmlns:svg="http://www.w3.org/2000/svg">
  <sodipodi:namedview
     id="namedview7"
     pagecolor="#ffffff"
     bordercolor="#666666"
     borderopacity="1.0"
     inkscape:pageshadow="2"
     inkscape:pageopacity="0.0"
     inkscape:pagecheckerboard="0"
     inkscape:document-units="px"
     showgrid="false"
     inkscape:zoom="26.214368"
     inkscape:cx="9.2697255"
     inkscape:cy="12.60759"
     inkscape:window-width="1920"
     inkscape:window-height="1051"
     inkscape:window-x="2048"
     inkscape:window-y="36"
     inkscape:window-maximized="1"
     inkscape:current-layer="layer3"
     fit-margin-top="0"
     fit-margin-left="0"
     fit-margin-right="0"
     fit-margin-bottom="0"
     units="px"
     width="90.70866px" />
  <defs
     id="defs2" />
  <g
     inkscape:groupmode="layer"
     id="layer3"
     inkscape:label="Layer 3"
     style="display:inline"
     transform="translate(-59.240126,-122.59783)">
    <path
       style="fill:#000000;stroke-width:0.0188538"
       d="m 60.493608,128.80392 c -0.05262,-0.0676 -0.227773,-0.4073 -0.228157,-0.44249 -1.36e-4,-0.0125 -0.01749,-0.0755 -0.03857,-0.1398 -0.05903,-0.18006 -0.05434,-0.49244 0.0098,-0.65553 0.06522,-0.1656 0.222082,-0.38925 0.479683,-0.68386 0.108264,-0.12382 0.733355,-0.75284 0.861999,-0.86005 l 0.0887,-0.0739 0.223276,0.35894 c 0.115317,0.18537 0.212543,0.34373 0.212625,0.35387 7.3e-5,0.0103 -0.05533,0.0992 -0.123133,0.19776 -0.134693,0.1959 -0.351481,0.51662 -0.688654,1.01883 -0.275205,0.40992 -0.546118,0.81054 -0.607643,0.89861 -0.07403,0.10593 -0.123441,0.11317 -0.189992,0.0275 z m 3.199644,-8.7e-4 c -0.05994,-0.0603 -0.09493,-0.10594 -0.138236,-0.18007 -0.02042,-0.0348 -0.05945,-0.0968 -0.08677,-0.13725 -0.02729,-0.0406 -0.05399,-0.0824 -0.0593,-0.0929 -0.0053,-0.0103 -0.05736,-0.0918 -0.1157,-0.18078 -0.127503,-0.19435 -0.180255,-0.27668 -0.232163,-0.3623 -0.02151,-0.0355 -0.06436,-0.10185 -0.09522,-0.14745 -0.03088,-0.0454 -0.08427,-0.12857 -0.118673,-0.18433 -0.03442,-0.0558 -0.07737,-0.12213 -0.09548,-0.14748 -0.01811,-0.0254 -0.08626,-0.12903 -0.15145,-0.23041 -0.132148,-0.20553 -0.132594,-0.20619 -0.247096,-0.38169 -0.04507,-0.0692 -0.08196,-0.13225 -0.08196,-0.14037 0,-0.008 -0.01518,-0.0311 -0.03375,-0.051 -0.01854,-0.0199 -0.05027,-0.065 -0.07043,-0.10029 -0.02017,-0.0351 -0.06139,-0.0996 -0.09159,-0.14325 -0.03018,-0.0436 -0.05489,-0.0842 -0.05489,-0.0905 0,-0.005 -0.02171,-0.0383 -0.0482,-0.0716 -0.02655,-0.0332 -0.04822,-0.0655 -0.04822,-0.0715 0,-0.005 -0.04026,-0.0709 -0.08946,-0.14409 -0.04921,-0.0733 -0.120007,-0.17868 -0.157336,-0.23444 -0.08812,-0.13165 -0.535067,-0.82807 -0.613705,-0.94144 0.04298,-0.0561 0.134289,-0.19987 0.264814,-0.27192 0.133008,-0.0734 0.298511,-0.10111 0.349155,-0.11343 0.0306,0.0395 0.555917,0.78765 0.612713,0.87164 0.0839,0.12412 0.322136,0.43998 0.384785,0.51045 0.02526,0.0285 0.69341,0.79382 0.886101,1.0292 0.314179,0.38376 0.435318,0.55803 0.505972,0.72793 0.06103,0.14674 0.08995,0.29198 0.08955,0.42987 -7.76e-4,0.26777 -0.02948,0.27831 -0.08848,0.41438 -0.06619,0.153 -0.180741,0.35565 -0.231532,0.40958 -0.06233,0.0662 -0.09677,0.0723 -0.143416,0.0252 z m -1.272256,-2.82108 c 0.06663,-0.0701 0.04425,-0.23929 -0.0282,-0.29886 -0.105778,-0.087 -0.289039,-0.0644 -0.347975,0.0534 -0.04194,0.0839 -0.04409,0.23097 0.05246,0.28834 0.09085,0.054 0.248286,0.0365 0.323697,-0.043 z m 0.279478,-0.39941 c -0.03942,-0.0544 -0.152737,-0.18417 -0.231961,-0.30144 l -0.07442,-0.11014 c 0.196227,-0.21277 0.578662,-0.50061 0.827799,-0.77784 0.146809,0.0322 0.228223,0.0471 0.337232,0.11357 0.08757,0.0534 0.165695,0.14763 0.254145,0.23355 -0.107599,0.13543 -0.786048,0.87561 -0.964124,1.04761 z"
       id="path2149-7"
       sodipodi:nodetypes="sssssscscssssssssssssssssssssssssccscssscsssssssssssccccsccc" />
    <path
       style="display:inline;fill:#000000;stroke-width:0.0128253"
       d="m 60.720044,124.8597 c -0.195638,0.0756 -0.376174,0.082 -0.624354,0.0228 -0.199424,-0.0477 -0.37425,-0.12104 -0.581249,-0.24392 l -0.134076,-0.0795 0.06956,-0.0657 c 0.07996,-0.0756 0.319231,-0.23135 0.392527,-0.25557 l 0.04962,-0.0164 0.0814,0.0769 c 0.09761,0.0923 0.196796,0.16443 0.299923,0.21801 0.111278,0.0579 0.358804,0.11118 0.502294,0.10814 0.128956,-0.002 0.322062,-0.0283 0.353759,-0.0468 0.04113,-0.0239 0.0106,0.0137 -0.05882,0.0726 -0.08174,0.0695 -0.253367,0.17194 -0.350606,0.20948 z m 0.848273,-0.50073 c -0.08379,0.0325 -0.137032,0.0421 -0.09439,0.0171 0.0319,-0.0188 0.144784,-0.17251 0.204094,-0.27814 0.144421,-0.25721 0.170211,-0.53247 0.07777,-0.83012 -0.03364,-0.10837 -0.03426,-0.11845 -0.0085,-0.14209 0.05264,-0.0486 0.252832,-0.1606 0.357291,-0.20004 0.173672,-0.0656 0.159871,-0.0726 0.173034,0.0903 0.03459,0.42846 -0.05845,0.82035 -0.244917,1.0315 -0.111687,0.12647 -0.282731,0.24121 -0.464266,0.31145 z m -0.483314,0.14186 c -0.229913,0.0506 -0.41003,0.0496 -0.607259,-0.003 -0.225742,-0.061 -0.411279,-0.19853 -0.611051,-0.4531 -0.08792,-0.11201 -0.259191,-0.39176 -0.2535,-0.41399 0.0047,-0.0188 0.13,-0.0467 0.272431,-0.0606 0.518083,-0.0514 0.850295,0.12537 1.194129,0.63487 0.132283,0.19602 0.160348,0.25056 0.13561,0.26362 -0.0077,0.003 -0.06644,0.019 -0.130354,0.0331 z m 0.202781,-0.1288 c -0.0594,-0.064 -0.246689,-0.40204 -0.292291,-0.52771 -0.13087,-0.36072 -0.09902,-0.65527 0.104513,-0.96689 0.06847,-0.10485 0.185817,-0.24097 0.204009,-0.23671 0.02326,0.005 0.205648,0.28733 0.266345,0.41159 0.209177,0.42824 0.203584,0.74282 -0.01931,1.08587 -0.04604,0.0709 -0.193128,0.24701 -0.218822,0.26201 -0.0065,0.003 -0.0265,-0.009 -0.04444,-0.0283 z m -0.460403,-0.6051 c -0.06597,-0.0654 -0.236385,-0.17245 -0.337092,-0.21193 -0.046,-0.0179 -0.139842,-0.0444 -0.208523,-0.0587 l -0.12488,-0.0257 -0.0052,-0.0774 c -0.0095,-0.14211 0.02361,-0.34699 0.08152,-0.50458 l 0.02591,-0.0705 0.05461,0.005 c 0.163069,0.0165 0.369781,0.0824 0.516457,0.16418 l 0.0838,0.0468 -0.03335,0.092 c -0.06259,0.17259 -0.06916,0.4099 -0.0164,0.59507 0.01331,0.0468 0.02128,0.0869 0.01764,0.0891 -0.0036,0.002 -0.02815,-0.0175 -0.0545,-0.0436 z"
       id="path872-3-6" />
    <path
       style="display:inline;fill:#000000;stroke-width:0.0128253"
       d="m 64.177092,124.84462 c 0.195638,0.0756 0.376174,0.082 0.624354,0.0228 0.199424,-0.0477 0.37425,-0.12103 0.581249,-0.24393 l 0.134076,-0.0795 -0.06956,-0.0657 c -0.07996,-0.0756 -0.319231,-0.23135 -0.392527,-0.25557 l -0.04962,-0.0164 -0.0814,0.0769 c -0.09761,0.0923 -0.196796,0.16444 -0.299923,0.21802 -0.111278,0.0579 -0.358804,0.11119 -0.502294,0.10814 -0.128956,-0.002 -0.322062,-0.0283 -0.353759,-0.0468 -0.04112,-0.0239 -0.0106,0.0137 0.05882,0.0725 0.08174,0.0695 0.253367,0.17194 0.350606,0.20948 z m -0.848273,-0.50074 c 0.08379,0.0325 0.137032,0.0421 0.09439,0.0171 -0.0319,-0.0188 -0.144784,-0.1725 -0.204094,-0.27814 -0.144421,-0.25722 -0.170211,-0.53246 -0.07777,-0.83012 0.03364,-0.10837 0.03426,-0.11846 0.0085,-0.14209 -0.05264,-0.0486 -0.252832,-0.1606 -0.357291,-0.20005 -0.173672,-0.0656 -0.159871,-0.0727 -0.173034,0.0903 -0.0346,0.42847 0.05845,0.82036 0.244917,1.03151 0.111687,0.12647 0.282731,0.2412 0.464266,0.31145 z m 0.483314,0.14187 c 0.229913,0.0506 0.41003,0.0496 0.607259,-0.003 0.225742,-0.061 0.411279,-0.19855 0.611051,-0.45311 0.08792,-0.11201 0.259191,-0.39175 0.2535,-0.414 -0.0047,-0.0188 -0.13,-0.0467 -0.272431,-0.0606 -0.518083,-0.0513 -0.850295,0.12537 -1.194129,0.63487 -0.132283,0.19602 -0.160348,0.25056 -0.13561,0.26361 0.0077,0.003 0.06644,0.019 0.130354,0.0331 z m -0.202781,-0.12881 c 0.0594,-0.064 0.246689,-0.40204 0.292291,-0.52771 0.13087,-0.36073 0.09902,-0.65527 -0.104513,-0.96689 -0.06848,-0.10485 -0.185817,-0.24097 -0.204009,-0.23671 -0.02326,0.005 -0.205648,0.28733 -0.266345,0.41159 -0.209177,0.42824 -0.203584,0.74282 0.01931,1.08587 0.04604,0.0709 0.193128,0.247 0.218822,0.26201 0.0065,0.003 0.0265,-0.009 0.04444,-0.0283 z m 0.460403,-0.6051 c 0.06597,-0.0654 0.236385,-0.17245 0.337092,-0.21194 0.046,-0.0179 0.139842,-0.0444 0.208523,-0.0587 l 0.12488,-0.0257 0.0052,-0.0774 c 0.0095,-0.14211 -0.02361,-0.34699 -0.08152,-0.50457 l -0.02591,-0.0705 -0.05461,0.005 c -0.163069,0.0165 -0.369781,0.0824 -0.516457,0.16418 l -0.0838,0.0468 0.03335,0.092 c 0.06259,0.17259 0.06916,0.40991 0.0164,0.59508 -0.01331,0.0468 -0.02128,0.0869 -0.01764,0.0891 0.0036,0.002 0.02814,-0.0175 0.0545,-0.0437 z"
       id="path872-3-6-9" />
  </g>
</svg>
