<?xml version="1.0" encoding="UTF-8" standalone="no"?>
<!-- Created with Inkscape (http://www.inkscape.org/) -->

<svg
   width="90.7341mm"
   height="92.466064mm"
   viewBox="0 0 90.7341 92.466064"
   version="1.1"
   id="svg5"
   sodipodi:docname="sagesnips_icon2.svg"
   inkscape:version="1.1.2 (0a00cf5339, 2022-02-04)"
   xmlns:inkscape="http://www.inkscape.org/namespaces/inkscape"
   xmlns:sodipodi="http://sodipodi.sourceforge.net/DTD/sodipodi-0.dtd"
   xmlns="http://www.w3.org/2000/svg"
   xmlns:svg="http://www.w3.org/2000/svg">
  <sodipodi:namedview
     id="namedview7"
     pagecolor="#ffffff"
     bordercolor="#666666"
     borderopacity="1.0"
     inkscape:pageshadow="2"
     inkscape:pageopacity="0.0"
     inkscape:pagecheckerboard="0"
     inkscape:document-units="mm"
     showgrid="false"
     inkscape:zoom="2.5533279"
     inkscape:cx="142.36323"
     inkscape:cy="173.69488"
     inkscape:window-width="1920"
     inkscape:window-height="1075"
     inkscape:window-x="64"
     inkscape:window-y="0"
     inkscape:window-maximized="0"
     inkscape:current-layer="layer1"
     fit-margin-top="0"
     fit-margin-left="0"
     fit-margin-right="0"
     fit-margin-bottom="0" />
  <defs
     id="defs2" />
  <g
     inkscape:groupmode="layer"
     id="layer3"
     inkscape:label="Layer 3"
     style="display:none"
     transform="translate(-59.240126,-122.59783)">
    <path
       style="fill:#000000;stroke-width:0.264583"
       d="m 77.473923,214.22351 c -0.721862,-0.96993 -3.125175,-5.84622 -3.130416,-6.35157 -0.0019,-0.18104 -0.240002,-1.0839 -0.529166,-2.00637 -0.810135,-2.58444 -0.745616,-7.06837 0.135384,-9.40897 0.894752,-2.37714 3.047074,-5.58718 6.581529,-9.8159 1.4855,-1.7773 10.062002,-10.80587 11.827055,-12.34484 l 1.216973,-1.0611 3.063522,5.15194 c 1.582141,2.66069 2.91621,4.93348 2.91732,5.079 0.001,0.14552 -0.75917,1.42286 -1.68952,2.83852 -1.84805,2.81206 -4.82249,7.41569 -9.4487,14.62398 -3.77596,5.88349 -7.49302,11.6339 -8.3372,12.89793 -1.015832,1.52104 -1.693607,1.62437 -2.606781,0.39738 z m 43.900927,-0.01 c -0.82236,-0.86655 -1.30256,-1.52084 -1.89669,-2.58432 -0.28017,-0.50149 -0.81595,-1.38805 -1.19063,-1.97013 -0.37467,-0.58209 -0.74076,-1.18199 -0.81352,-1.33311 -0.0728,-0.15113 -0.78713,-1.31891 -1.5875,-2.59507 -1.74949,-2.78953 -2.47327,-3.97104 -3.18543,-5.19995 -0.29516,-0.50933 -0.88308,-1.46183 -1.30649,-2.11667 -0.42341,-0.65485 -1.15614,-1.84547 -1.62828,-2.64583 -0.47215,-0.80037 -1.06167,-1.75287 -1.31004,-2.11667 -0.24837,-0.3638 -1.18343,-1.85208 -2.07792,-3.30729 -1.81324,-2.94995 -1.81916,-2.95951 -3.39029,-5.47854 -0.61846,-0.99161 -1.12448,-1.89831 -1.12448,-2.0149 0,-0.1166 -0.20836,-0.44636 -0.46302,-0.73282 -0.25466,-0.28646 -0.6896,-0.93399 -0.96654,-1.43896 -0.27693,-0.50496 -0.842476,-1.4301 -1.256766,-2.05586 -0.41429,-0.62576 -0.75325,-1.20983 -0.75325,-1.29794 0,-0.0881 -0.29766,-0.55045 -0.66146,-1.02742 -0.3638,-0.47697 -0.66146,-0.93853 -0.66146,-1.0257 0,-0.0872 -0.55245,-1.01784 -1.22767,-2.06817 -0.67521,-1.05033 -1.64664,-2.56454 -2.15871,-3.3649 -1.20901,-1.88964 -7.2306,-11.9473 -8.141472,-13.59322 1.255913,-0.69941 6.929543,-4.13638 8.606387,-5.20788 0.960506,1.74625 7.166191,11.0625 7.945451,12.26832 1.15115,1.78129 4.4199,6.31495 5.27951,7.32653 0.3469,0.40823 9.51393,11.39405 12.15777,14.77239 4.31072,5.50832 5.97281,8.00987 6.94222,10.44851 0.83728,2.10624 0.85989,2.26847 0.85448,6.13222 -0.005,3.84339 -0.0319,4.03246 -0.83966,5.98572 -0.90808,2.19586 -2.47988,5.10466 -3.17671,5.87889 -0.85519,0.95018 -1.3277,1.03729 -1.96783,0.36276 z m -17.45606,-40.49179 c 0.91411,-1.00649 0.60736,-3.43487 -0.38688,-4.29008 -1.45126,-1.24832 -3.965741,-0.9247 -4.774415,0.76674 -0.575576,1.20389 -0.604963,3.31529 0.71998,4.13872 1.246455,0.77465 3.406625,0.52388 4.441315,-0.61538 z m 3.83456,-5.73318 c -0.5411,-0.78162 -2.09566,-2.64348 -3.18264,-4.32663 l -1.02098,-1.58096 c 2.69236,-3.05414 7.04155,-7.76252 10.45982,-11.74174 3.01723,2.17314 4.30843,3.4754 7.8263,6.35746 -2.45116,2.39217 -9.59922,11.76966 -12.04253,14.23858 z"
       id="path2149-7"
       sodipodi:nodetypes="sssssscscssssssssssssssssssssssssccsssscsssssssssssccccs" />
    <path
       style="display:inline;fill:#000000;stroke-width:0.202196"
       d="m 79.986181,158.21319 c -3.029595,1.21189 -5.825386,1.31758 -9.668678,0.36548 -3.088252,-0.76506 -5.79559,-1.94264 -9.001168,-3.91514 l -2.076209,-1.27757 1.077313,-1.05508 c 1.238205,-1.21265 4.943593,-3.71298 6.078655,-4.10178 l 0.768288,-0.26315 1.260533,1.23591 c 1.511588,1.48205 3.047586,2.6393 4.644585,3.49928 1.723389,0.92804 5.556415,1.78322 7.778527,1.73545 1.996916,-0.0429 4.987361,-0.45237 5.478291,-0.75004 0.6368,-0.38614 0.1631,0.2196 -0.91067,1.1645 -1.265991,1.11405 -3.923645,2.75978 -5.429477,3.36212 z m 13.136347,-8.03655 c -1.29764,0.52041 -2.12206,0.67565 -1.46171,0.27524 0.49386,-0.29946 2.24213,-2.76873 3.16061,-4.46406 2.23649,-4.12817 2.63585,-8.54591 1.20438,-13.32298 -0.52118,-1.73926 -0.53067,-1.90136 -0.13347,-2.28075 0.81524,-0.77866 3.915311,-2.5774 5.532982,-3.21037 2.6895,-1.05236 2.47573,-1.16794 2.67962,1.44888 0.5358,6.8768 -0.90522,13.16676 -3.79277,16.55527 -1.729672,2.02972 -4.378362,3.8713 -7.189642,4.99877 z m -7.48458,2.27671 c -3.560428,0.81336 -6.349695,0.79585 -9.403979,-0.059 -3.495813,-0.97847 -6.369043,-3.18661 -9.462687,-7.27228 -1.361471,-1.79804 -4.01383,-6.28739 -3.925699,-6.6446 0.07425,-0.30096 2.01317,-0.74922 4.218875,-0.97535 8.023007,-0.82257 13.167612,2.01217 18.49221,10.18932 2.04857,3.14606 2.48311,4.02155 2.10001,4.23105 -0.1204,0.0659 -1.02883,0.30476 -2.01873,0.5309 z m 3.14028,-2.06722 c -0.92012,-1.02588 -3.82021,-6.45246 -4.5264,-8.46973 -2.026664,-5.7892 -1.533636,-10.51683 1.61832,-15.51811 1.06022,-1.68227 2.87749,-3.86747 3.15926,-3.79889 0.36001,0.0876 3.18459,4.61138 4.1246,6.60585 3.23928,6.87289 3.15265,11.92178 -0.29903,17.4277 -0.713,1.13732 -2.99076,3.96396 -3.38867,4.20524 -0.10068,0.0611 -0.41033,-0.14237 -0.68808,-0.45206 z m -7.12981,-9.71154 c -1.021616,-1.04804 -3.660627,-2.76767 -5.22016,-3.40155 -0.712444,-0.28957 -2.165583,-0.71322 -3.229192,-0.94142 l -1.933831,-0.41491 -0.0802,-1.24309 c -0.14713,-2.28045 0.365515,-5.56889 1.26246,-8.09828 l 0.401087,-1.13107 0.845866,0.0892 c 2.525302,0.26613 5.726416,1.32067 7.997842,2.63472 l 1.297524,0.75063 -0.516592,1.47603 c -0.969505,2.77016 -1.070755,6.57887 -0.253898,9.55072 0.206503,0.75127 0.329425,1.39387 0.273166,1.42799 -0.05629,0.0341 -0.436094,-0.28041 -0.844069,-0.69893 z"
       id="path872-3-6" />
    <path
       style="display:inline;fill:#000000;stroke-width:0.202196"
       d="m 129.22817,158.24573 c 3.0296,1.21189 5.82539,1.31758 9.66868,0.36548 3.08825,-0.76506 5.79559,-1.94264 9.00117,-3.91514 l 2.07621,-1.27757 -1.07731,-1.05508 c -1.23821,-1.21265 -4.9436,-3.71298 -6.07866,-4.10178 l -0.76829,-0.26315 -1.26053,1.23591 c -1.51159,1.48205 -3.04759,2.6393 -4.64459,3.49928 -1.72338,0.92804 -5.55641,1.78322 -7.77852,1.73545 -1.99692,-0.0429 -4.98736,-0.45237 -5.47829,-0.75004 -0.6368,-0.38614 -0.1631,0.2196 0.91067,1.1645 1.26599,1.11405 3.92364,2.75978 5.42947,3.36212 z m -13.13634,-8.03655 c 1.29763,0.52041 2.12206,0.67565 1.4617,0.27524 -0.49386,-0.29946 -2.24213,-2.76873 -3.1606,-4.46406 -2.23649,-4.12817 -2.63585,-8.54591 -1.20438,-13.32298 0.52118,-1.73926 0.53066,-1.90136 0.13346,-2.28075 -0.81523,-0.77866 -3.91531,-2.5774 -5.53297,-3.21037 -2.6895,-1.05236 -2.47573,-1.16794 -2.67962,1.44888 -0.5358,6.8768 0.90522,13.16676 3.79277,16.55527 1.72966,2.02972 4.37835,3.8713 7.18964,4.99877 z m 7.48458,2.27671 c 3.56042,0.81336 6.34969,0.79585 9.40398,-0.059 3.49581,-0.97847 6.36904,-3.18661 9.46268,-7.27228 1.36147,-1.79804 4.01383,-6.28739 3.9257,-6.6446 -0.0742,-0.30096 -2.01317,-0.74922 -4.21887,-0.97535 -8.02301,-0.82257 -13.16762,2.01217 -18.49221,10.18932 -2.04858,3.14606 -2.48312,4.02155 -2.10002,4.23105 0.12041,0.0659 1.02884,0.30476 2.01873,0.5309 z m -3.14028,-2.06722 c 0.92012,-1.02588 3.8202,-6.45246 4.5264,-8.46973 2.02666,-5.7892 1.53363,-10.51683 -1.61832,-15.51811 -1.06022,-1.68227 -2.87749,-3.86747 -3.15927,-3.79889 -0.36001,0.0876 -3.18458,4.61138 -4.1246,6.60585 -3.23928,6.87289 -3.15264,11.92178 0.29903,17.4277 0.713,1.13732 2.99076,3.96396 3.38868,4.20524 0.10068,0.0611 0.41032,-0.14237 0.68808,-0.45206 z m 7.12981,-9.71154 c 1.02161,-1.04804 3.66062,-2.76767 5.22016,-3.40155 0.71244,-0.28957 2.16558,-0.71322 3.22919,-0.94142 l 1.93383,-0.41491 0.0802,-1.24309 c 0.14713,-2.28045 -0.36552,-5.56889 -1.26246,-8.09828 l -0.40109,-1.13107 -0.84586,0.0892 c -2.52531,0.26613 -5.72642,1.32067 -7.99785,2.63472 l -1.29752,0.75063 0.51659,1.47603 c 0.96951,2.77016 1.07076,6.57887 0.2539,9.55072 -0.2065,0.75127 -0.32942,1.39387 -0.27317,1.42799 0.0563,0.0341 0.4361,-0.28041 0.84407,-0.69893 z"
       id="path872-3-5-2" />
  </g>
  <g
     inkscape:groupmode="layer"
     id="layer1"
     inkscape:label="Layer 4"
     style="display:inline">
    <path
       style="display:inline;fill:#000000;stroke-width:0.223684"
       d="m 56.922906,48.821899 c 3.394551,-0.637108 5.968773,-2.226357 8.902418,-5.496131 2.357296,-2.627411 4.14437,-5.43195 5.941511,-9.324335 l 1.163974,-2.521055 -1.551216,-0.390583 C 69.59671,30.640886 64.883602,30.413419 63.647777,30.716628 l -0.836476,0.205249 -0.452919,1.985703 c -0.543133,2.38118 -1.287306,4.455992 -2.250293,6.273823 -1.039184,1.961692 -4.017028,5.129417 -6.04306,6.428388 -1.820689,1.167364 -4.737572,2.574165 -5.343491,2.577251 -0.785966,0.0039 -0.02564,0.315948 1.461593,0.59973 1.753522,0.334586 5.052562,0.351787 6.739775,0.0351 z m -16.643483,1.441509 c 0,0 -2.446725,-3.079515 -3.472921,-4.203548 -3.426667,-3.753365 -7.058569,-7.191823 -8.404312,-12.782518 -0.48996,-2.03549 -0.570808,-2.201514 -1.137434,-2.336015 -1.16296,-0.276038 -4.944508,-0.176499 -6.74925,0.177649 -3.000535,0.588808 -2.871889,0.345018 -1.612536,3.056002 3.309488,7.12425 17.425082,20.621479 18.292247,21.728076 1.065934,1.291677 3.590524,-4.893783 3.084206,-5.639646 z m 8.381631,-3.712765 c 3.652509,-1.352751 6.152928,-3.059869 8.430164,-5.755489 2.6064,-3.085336 3.974539,-7.009373 4.505809,-12.923405 0.23381,-2.602679 0.14539,-8.648524 -0.130878,-8.948335 -0.232713,-0.252631 -2.224752,0.47881 -4.334362,1.591483 -7.673484,4.047183 -10.740159,9.966845 -11.023162,21.278018 -0.108882,4.351842 -0.0172,5.480763 0.443062,5.455822 0.144693,-0.0077 1.093886,-0.321955 2.109388,-0.698049 z m -3.965758,-0.141578 c 0.262391,-1.571797 -0.11987,-8.694433 -0.596605,-11.116903 -1.36819,-6.952049 -4.418538,-11.32795 -10.01255,-14.363597 -1.881651,-1.021091 -4.721874,-2.08083 -4.937637,-1.84231 -0.275673,0.30472 -0.323248,6.488939 -0.06949,9.030517 0.874457,8.758216 3.736228,13.697974 9.878197,17.051021 1.268721,0.692609 4.877009,2.107616 5.368138,2.10512 0.124293,-5.81e-4 0.290758,-0.389355 0.369955,-0.863844 z m 1.061518,-13.921989 c 0.34149,-1.655198 1.768203,-4.95431 2.822131,-6.525881 0.481478,-0.717935 1.555575,-2.017179 2.386901,-2.887179 l 1.511491,-1.581813 -0.613231,-1.277731 c -1.124967,-2.344 -3.399447,-5.284971 -5.601235,-7.242598 l -0.984579,-0.875391 -0.712016,0.600641 c -2.125796,1.793038 -4.425047,4.775053 -5.744594,7.450448 l -0.753778,1.528274 1.278726,1.14651 c 2.39985,2.151728 4.590968,5.85637 5.494458,9.28975 0.228395,0.867944 0.472083,1.577803 0.541517,1.577463 0.06945,-3.9e-4 0.237843,-0.541464 0.37422,-1.202446 z"
       id="path872-3-5-2-3"
       sodipodi:nodetypes="csscsccssccscccsscssccccsccscccscsccccssccscssccscssccc" />
    <path
       style="display:inline;fill:#000000;stroke-width:0.177424"
       d="m 28.668688,89.054312 c -0.486151,-0.647616 -2.104706,-3.903526 -2.108236,-4.240947 -0.0013,-0.120882 -0.161634,-0.723721 -0.356377,-1.339656 -0.5456,-1.725632 -0.502149,-4.719555 0.09118,-6.282374 0.602587,-1.587218 2.052108,-3.730564 4.432453,-6.554083 1.000437,-1.186705 6.776439,-7.215086 7.965147,-8.242657 l 0.819593,-0.708497 2.063185,3.439953 c 1.065522,1.776545 1.963976,3.294089 1.964724,3.391251 6.73e-4,0.09717 -0.511278,0.950046 -1.13784,1.895282 -1.244603,1.877615 -3.247794,4.951461 -6.3634,9.76444 -2.54299,3.928411 -5.046313,7.767963 -5.614841,8.611961 -0.684132,1.015591 -1.140592,1.084588 -1.755585,0.265327 z m 29.565888,-0.007 c -0.553832,-0.578657 -0.877233,-1.015529 -1.277361,-1.725613 -0.188686,-0.334845 -0.549516,-0.926802 -0.801852,-1.315456 -0.252328,-0.388661 -0.498878,-0.789216 -0.54788,-0.890118 -0.04903,-0.100911 -0.530108,-0.880639 -1.069131,-1.732731 -1.178226,-1.862571 -1.665669,-2.651466 -2.145287,-3.47201 -0.19878,-0.340079 -0.594726,-0.976065 -0.87988,-1.413302 -0.285153,-0.437244 -0.778622,-1.232221 -1.096593,-1.766621 -0.317979,-0.534408 -0.715001,-1.170393 -0.882272,-1.413303 -0.167269,-0.24291 -0.797002,-1.236635 -1.399413,-2.208279 -1.22116,-1.969683 -1.225147,-1.976067 -2.283254,-3.658025 -0.416512,-0.662099 -0.757301,-1.267504 -0.757301,-1.34535 0,-0.07785 -0.140324,-0.298034 -0.31183,-0.489305 -0.171504,-0.191269 -0.464423,-0.623625 -0.650933,-0.960794 -0.186504,-0.337162 -0.567381,-0.954879 -0.846392,-1.372699 -0.279012,-0.41782 -0.507291,-0.807803 -0.507291,-0.866635 0,-0.05883 -0.200465,-0.367536 -0.445472,-0.68601 -0.245008,-0.318473 -0.445473,-0.626656 -0.445473,-0.68486 0,-0.05822 -0.372058,-0.679612 -0.826797,-1.380918 -0.454733,-0.701306 -1.10896,-1.712344 -1.453823,-2.246746 -0.81423,-1.261715 -4.301939,-5.314962 -5.431816,-6.777603 -0.254842,-0.493308 3.609633,-5.542877 4.032982,-4.987365 0.88995,1.167777 3.74746,4.48757 4.403969,5.292698 0.897197,1.100302 5.635645,6.326825 6.214565,7.002258 0.233626,0.272574 6.407331,7.607814 8.187873,9.863534 2.903134,3.677908 4.0225,5.348194 4.675367,6.976476 0.563881,1.406338 0.579109,1.514659 0.575464,4.094487 -0.0033,2.566234 -0.02148,2.692476 -0.565484,3.996669 -0.611563,1.466178 -1.67012,3.408386 -2.139413,3.925345 -0.575944,0.63443 -0.894165,0.692597 -1.325272,0.242209 z M 46.478471,62.011241 c 0.615624,-0.672034 0.409038,-2.293465 -0.260551,-2.864489 -0.977378,-0.833504 -2.670802,-0.617423 -3.215418,0.511954 -0.387633,0.803837 -0.407423,2.21362 0.484884,2.763425 0.839447,0.517234 2.294254,0.349795 2.991085,-0.41089 z m 2.582455,-3.828049 C 48.696512,57.661306 47.649566,56.418141 46.917518,55.2943 l -0.687597,-1.055608 c 1.813218,-2.039252 4.742261,-5.183039 7.044358,-7.839968 2.032009,1.451008 2.901591,2.320528 5.270766,4.244881 -1.650779,1.597253 -6.464772,7.858608 -8.110264,9.507108 z"
       id="path2149-7-7"
       sodipodi:nodetypes="sssssscscssssssssssssssssssssssssccsssscsssssssssssccccss" />
  </g>
</svg>
