<?xml version="1.0" encoding="UTF-8" standalone="no"?>
<!-- Created with Inkscape (http://www.inkscape.org/) -->

<svg
   width="90.7341mm"
   height="92.466064mm"
   viewBox="0 0 90.7341 92.466064"
   version="1.1"
   id="svg5"
   sodipodi:docname="sagesnips_icon.svg"
   inkscape:version="1.1.2 (0a00cf5339, 2022-02-04)"
   xmlns:inkscape="http://www.inkscape.org/namespaces/inkscape"
   xmlns:sodipodi="http://sodipodi.sourceforge.net/DTD/sodipodi-0.dtd"
   xmlns="http://www.w3.org/2000/svg"
   xmlns:svg="http://www.w3.org/2000/svg">
  <sodipodi:namedview
     id="namedview7"
     pagecolor="#ffffff"
     bordercolor="#666666"
     borderopacity="1.0"
     inkscape:pageshadow="2"
     inkscape:pageopacity="0.0"
     inkscape:pagecheckerboard="0"
     inkscape:document-units="mm"
     showgrid="false"
     inkscape:zoom="1.8054755"
     inkscape:cx="193.02394"
     inkscape:cy="171.97686"
     inkscape:window-width="1920"
     inkscape:window-height="1095"
     inkscape:window-x="2048"
     inkscape:window-y="14"
     inkscape:window-maximized="0"
     inkscape:current-layer="layer3"
     fit-margin-top="0"
     fit-margin-left="0"
     fit-margin-right="0"
     fit-margin-bottom="0" />
  <defs
     id="defs2" />
  <g
     inkscape:groupmode="layer"
     id="layer3"
     inkscape:label="Layer 3"
     style="display:inline"
     transform="translate(-59.240126,-122.59783)">
    <path
       style="fill:#000000;stroke-width:0.264583"
       d="m 77.473923,214.22351 c -0.721862,-0.96993 -3.125175,-5.84622 -3.130416,-6.35157 -0.0019,-0.18104 -0.240002,-1.0839 -0.529166,-2.00637 -0.810135,-2.58444 -0.745616,-7.06837 0.135384,-9.40897 0.894752,-2.37714 3.047074,-5.58718 6.581529,-9.8159 1.4855,-1.7773 10.062002,-10.80587 11.827055,-12.34484 l 1.216973,-1.0611 3.063522,5.15194 c 1.582141,2.66069 2.91621,4.93348 2.91732,5.079 0.001,0.14552 -0.75917,1.42286 -1.68952,2.83852 -1.84805,2.81206 -4.82249,7.41569 -9.4487,14.62398 -3.77596,5.88349 -7.49302,11.6339 -8.3372,12.89793 -1.015832,1.52104 -1.693607,1.62437 -2.606781,0.39738 z m 43.900927,-0.01 c -0.82236,-0.86655 -1.30256,-1.52084 -1.89669,-2.58432 -0.28017,-0.50149 -0.81595,-1.38805 -1.19063,-1.97013 -0.37467,-0.58209 -0.74076,-1.18199 -0.81352,-1.33311 -0.0728,-0.15113 -0.78713,-1.31891 -1.5875,-2.59507 -1.74949,-2.78953 -2.47327,-3.97104 -3.18543,-5.19995 -0.29516,-0.50933 -0.88308,-1.46183 -1.30649,-2.11667 -0.42341,-0.65485 -1.15614,-1.84547 -1.62828,-2.64583 -0.47215,-0.80037 -1.06167,-1.75287 -1.31004,-2.11667 -0.24837,-0.3638 -1.18343,-1.85208 -2.07792,-3.30729 -1.81324,-2.94995 -1.81916,-2.95951 -3.39029,-5.47854 -0.61846,-0.99161 -1.12448,-1.89831 -1.12448,-2.0149 0,-0.1166 -0.20836,-0.44636 -0.46302,-0.73282 -0.25466,-0.28646 -0.6896,-0.93399 -0.96654,-1.43896 -0.27693,-0.50496 -0.842476,-1.4301 -1.256766,-2.05586 -0.41429,-0.62576 -0.75325,-1.20983 -0.75325,-1.29794 0,-0.0881 -0.29766,-0.55045 -0.66146,-1.02742 -0.3638,-0.47697 -0.66146,-0.93853 -0.66146,-1.0257 0,-0.0872 -0.55245,-1.01784 -1.22767,-2.06817 -0.67521,-1.05033 -1.64664,-2.56454 -2.15871,-3.3649 -1.20901,-1.88964 -7.2306,-11.9473 -8.141472,-13.59322 1.255913,-0.69941 6.929543,-4.13638 8.606387,-5.20788 0.960506,1.74625 7.166191,11.0625 7.945451,12.26832 1.15115,1.78129 4.4199,6.31495 5.27951,7.32653 0.3469,0.40823 9.51393,11.39405 12.15777,14.77239 4.31072,5.50832 5.97281,8.00987 6.94222,10.44851 0.83728,2.10624 0.85989,2.26847 0.85448,6.13222 -0.005,3.84339 -0.0319,4.03246 -0.83966,5.98572 -0.90808,2.19586 -2.47988,5.10466 -3.17671,5.87889 -0.85519,0.95018 -1.3277,1.03729 -1.96783,0.36276 z m -17.45606,-40.49179 c 0.91411,-1.00649 0.60736,-3.43487 -0.38688,-4.29008 -1.45126,-1.24832 -3.965741,-0.9247 -4.774415,0.76674 -0.575576,1.20389 -0.604963,3.31529 0.71998,4.13872 1.246455,0.77465 3.406625,0.52388 4.441315,-0.61538 z m 3.83456,-5.73318 c -0.5411,-0.78162 -2.09566,-2.64348 -3.18264,-4.32663 l -1.02098,-1.58096 c 2.69236,-3.05414 7.04155,-7.76252 10.45982,-11.74174 3.01723,2.17314 4.30843,3.4754 7.8263,6.35746 -2.45116,2.39217 -9.59922,11.76966 -12.04253,14.23858 z"
       id="path2149-7"
       sodipodi:nodetypes="sssssscscssssssssssssssssssssssssccsssscsssssssssssccccs" />
    <path
       style="display:inline;fill:#000000;stroke-width:0.202196"
       d="m 79.986181,158.21319 c -3.029595,1.21189 -5.825386,1.31758 -9.668678,0.36548 -3.088252,-0.76506 -5.79559,-1.94264 -9.001168,-3.91514 l -2.076209,-1.27757 1.077313,-1.05508 c 1.238205,-1.21265 4.943593,-3.71298 6.078655,-4.10178 l 0.768288,-0.26315 1.260533,1.23591 c 1.511588,1.48205 3.047586,2.6393 4.644585,3.49928 1.723389,0.92804 5.556415,1.78322 7.778527,1.73545 1.996916,-0.0429 4.987361,-0.45237 5.478291,-0.75004 0.6368,-0.38614 0.1631,0.2196 -0.91067,1.1645 -1.265991,1.11405 -3.923645,2.75978 -5.429477,3.36212 z m 13.136347,-8.03655 c -1.29764,0.52041 -2.12206,0.67565 -1.46171,0.27524 0.49386,-0.29946 2.24213,-2.76873 3.16061,-4.46406 2.23649,-4.12817 2.63585,-8.54591 1.20438,-13.32298 -0.52118,-1.73926 -0.53067,-1.90136 -0.13347,-2.28075 0.81524,-0.77866 3.915311,-2.5774 5.532982,-3.21037 2.6895,-1.05236 2.47573,-1.16794 2.67962,1.44888 0.5358,6.8768 -0.90522,13.16676 -3.79277,16.55527 -1.729672,2.02972 -4.378362,3.8713 -7.189642,4.99877 z m -7.48458,2.27671 c -3.560428,0.81336 -6.349695,0.79585 -9.403979,-0.059 -3.495813,-0.97847 -6.369043,-3.18661 -9.462687,-7.27228 -1.361471,-1.79804 -4.01383,-6.28739 -3.925699,-6.6446 0.07425,-0.30096 2.01317,-0.74922 4.218875,-0.97535 8.023007,-0.82257 13.167612,2.01217 18.49221,10.18932 2.04857,3.14606 2.48311,4.02155 2.10001,4.23105 -0.1204,0.0659 -1.02883,0.30476 -2.01873,0.5309 z m 3.14028,-2.06722 c -0.92012,-1.02588 -3.82021,-6.45246 -4.5264,-8.46973 -2.026664,-5.7892 -1.533636,-10.51683 1.61832,-15.51811 1.06022,-1.68227 2.87749,-3.86747 3.15926,-3.79889 0.36001,0.0876 3.18459,4.61138 4.1246,6.60585 3.23928,6.87289 3.15265,11.92178 -0.29903,17.4277 -0.713,1.13732 -2.99076,3.96396 -3.38867,4.20524 -0.10068,0.0611 -0.41033,-0.14237 -0.68808,-0.45206 z m -7.12981,-9.71154 c -1.021616,-1.04804 -3.660627,-2.76767 -5.22016,-3.40155 -0.712444,-0.28957 -2.165583,-0.71322 -3.229192,-0.94142 l -1.933831,-0.41491 -0.0802,-1.24309 c -0.14713,-2.28045 0.365515,-5.56889 1.26246,-8.09828 l 0.401087,-1.13107 0.845866,0.0892 c 2.525302,0.26613 5.726416,1.32067 7.997842,2.63472 l 1.297524,0.75063 -0.516592,1.47603 c -0.969505,2.77016 -1.070755,6.57887 -0.253898,9.55072 0.206503,0.75127 0.329425,1.39387 0.273166,1.42799 -0.05629,0.0341 -0.436094,-0.28041 -0.844069,-0.69893 z"
       id="path872-3-6" />
    <path
       style="display:inline;fill:#000000;stroke-width:0.202196"
       d="m 129.22817,158.24573 c 3.0296,1.21189 5.82539,1.31758 9.66868,0.36548 3.08825,-0.76506 5.79559,-1.94264 9.00117,-3.91514 l 2.07621,-1.27757 -1.07731,-1.05508 c -1.23821,-1.21265 -4.9436,-3.71298 -6.07866,-4.10178 l -0.76829,-0.26315 -1.26053,1.23591 c -1.51159,1.48205 -3.04759,2.6393 -4.64459,3.49928 -1.72338,0.92804 -5.55641,1.78322 -7.77852,1.73545 -1.99692,-0.0429 -4.98736,-0.45237 -5.47829,-0.75004 -0.6368,-0.38614 -0.1631,0.2196 0.91067,1.1645 1.26599,1.11405 3.92364,2.75978 5.42947,3.36212 z m -13.13634,-8.03655 c 1.29763,0.52041 2.12206,0.67565 1.4617,0.27524 -0.49386,-0.29946 -2.24213,-2.76873 -3.1606,-4.46406 -2.23649,-4.12817 -2.63585,-8.54591 -1.20438,-13.32298 0.52118,-1.73926 0.53066,-1.90136 0.13346,-2.28075 -0.81523,-0.77866 -3.91531,-2.5774 -5.53297,-3.21037 -2.6895,-1.05236 -2.47573,-1.16794 -2.67962,1.44888 -0.5358,6.8768 0.90522,13.16676 3.79277,16.55527 1.72966,2.02972 4.37835,3.8713 7.18964,4.99877 z m 7.48458,2.27671 c 3.56042,0.81336 6.34969,0.79585 9.40398,-0.059 3.49581,-0.97847 6.36904,-3.18661 9.46268,-7.27228 1.36147,-1.79804 4.01383,-6.28739 3.9257,-6.6446 -0.0742,-0.30096 -2.01317,-0.74922 -4.21887,-0.97535 -8.02301,-0.82257 -13.16762,2.01217 -18.49221,10.18932 -2.04858,3.14606 -2.48312,4.02155 -2.10002,4.23105 0.12041,0.0659 1.02884,0.30476 2.01873,0.5309 z m -3.14028,-2.06722 c 0.92012,-1.02588 3.8202,-6.45246 4.5264,-8.46973 2.02666,-5.7892 1.53363,-10.51683 -1.61832,-15.51811 -1.06022,-1.68227 -2.87749,-3.86747 -3.15927,-3.79889 -0.36001,0.0876 -3.18458,4.61138 -4.1246,6.60585 -3.23928,6.87289 -3.15264,11.92178 0.29903,17.4277 0.713,1.13732 2.99076,3.96396 3.38868,4.20524 0.10068,0.0611 0.41032,-0.14237 0.68808,-0.45206 z m 7.12981,-9.71154 c 1.02161,-1.04804 3.66062,-2.76767 5.22016,-3.40155 0.71244,-0.28957 2.16558,-0.71322 3.22919,-0.94142 l 1.93383,-0.41491 0.0802,-1.24309 c 0.14713,-2.28045 -0.36552,-5.56889 -1.26246,-8.09828 l -0.40109,-1.13107 -0.84586,0.0892 c -2.52531,0.26613 -5.72642,1.32067 -7.99785,2.63472 l -1.29752,0.75063 0.51659,1.47603 c 0.96951,2.77016 1.07076,6.57887 0.2539,9.55072 -0.2065,0.75127 -0.32942,1.39387 -0.27317,1.42799 0.0563,0.0341 0.4361,-0.28041 0.84407,-0.69893 z"
       id="path872-3-5-2" />
  </g>
</svg>
